<?xml version="1.0" encoding="UTF-8"?>
<svg width="53px" height="16px" viewBox="0 0 53 16" version="1.1" xmlns="http://www.w3.org/2000/svg" xmlns:xlink="http://www.w3.org/1999/xlink">
    <title>arrow-left@3x</title>
    <g id="Design-R0" stroke="none" stroke-width="1" fill="none" fill-rule="evenodd">
        <g id="Initial-Thoughts" transform="translate(-1189.000000, -1038.000000)" fill="#333333">
            <g id="arrow-left" transform="translate(1215.500000, 1046.000000) scale(-1, 1) translate(-1215.500000, -1046.000000) translate(1189.000000, 1038.000000)">
                <path d="M49.5857548,7.000135 L1.00008151,7.000135 C0.448080676,7.000135 -2.27373675e-13,7.44822621 -2.27373675e-13,8 C-2.27373675e-13,8.5520138 0.448080676,9.000105 1.00008151,9.000105 L49.5859948,9.000105 L44.2930269,14.2931973 C43.9027863,14.6834471 43.9027863,15.3170629 44.2930269,15.7073127 C44.6832674,16.0975624 45.3168684,16.0975624 45.707109,15.7073127 L52.7071996,8.70729768 C52.8271997,8.58705468 52.9104799,8.4440111 52.9567999,8.2920873 L52.9575199,8.28920723 C52.98296,8.20496512 52.9976,8.1161629 53,8.02424061 L53,8 L53,7.9759994 C52.9976,7.8840771 52.98296,7.79527488 52.9575199,7.71103278 L52.9567999,7.7081527 C52.9104799,7.55622891 52.8271997,7.41318533 52.7071996,7.29294232 L45.707109,0.292687317 C45.3168684,-0.0975624391 44.6832674,-0.0975624391 44.2930269,0.292687317 C43.9027863,0.682937073 43.9027863,1.31679292 44.2930269,1.70704268 L49.5857548,7.000135 Z" id="Path"></path>
            </g>
        </g>
    </g>
</svg>