<?xml version="1.0" encoding="UTF-8"?>
<svg width="44px" height="40px" viewBox="0 0 44 40" version="1.1" xmlns="http://www.w3.org/2000/svg" xmlns:xlink="http://www.w3.org/1999/xlink">
    <title>baby-boy</title>
    <g id="Design-R0" stroke="none" stroke-width="1" fill="none" fill-rule="evenodd">
        <g id="Initial-Thoughts" transform="translate(-478.000000, -1622.000000)" fill="#000000" fill-rule="nonzero">
            <g id="Group-5" transform="translate(420.500000, 1622.000000)">
                <g id="baby-boy" transform="translate(57.500000, 0.000000)">
                    <path d="M19,22 C19,19.7943826 17.2056358,18 15.0000409,18 C12.7944461,18 11,19.7943826 11,22 L13.4277511,22 C13.4277511,21.1330658 14.1331157,20.427776 15.0000409,20.427776 C15.8669662,20.427776 16.5722489,21.1330658 16.5722489,22 L19,22 Z" id="Path"></path>
                    <path d="M28.9999591,18 C26.7943642,18 25,19.7943826 25,22 L27.4277511,22 C27.4277511,21.1330658 28.1330338,20.427776 28.9999591,20.427776 C29.8668843,20.427776 30.5722489,21.1330658 30.5722489,22 L33,22 C33,19.7943826 31.2056358,18 28.9999591,18 L28.9999591,18 Z" id="Path"></path>
                    <path d="M22.000084,30.3473569 C20.4250021,30.3473569 18.9481527,29.4479618 18.1456542,28.0000895 L16,29.3481085 C17.2483684,31.6007122 19.5474637,33 22,33 C24.4525363,33 26.7516316,31.6007122 28,29.3481085 L25.8543458,28 C25.0520153,29.4478723 23.5750819,30.3473569 22.000084,30.3473569 L22.000084,30.3473569 Z" id="Path"></path>
                    <path d="M42.3225888,17.8443424 C41.5015356,17.029055 40.4704799,16.4899678 39.3513362,16.2788627 C36.934438,8.8540505 29.9233983,3.74197118 22,3.74197118 L21.1357289,3.74197118 C19.060226,3.74197118 17.3716842,2.06324507 17.3716842,0 L14.7935667,0 C14.7935667,1.40010547 15.2555722,2.69457195 16.0351467,3.74197118 L15.2183544,3.74197118 C13.1428515,3.74197118 11.4543097,2.06324507 11.4543097,0 L8.87619221,0 C8.87619221,2.78473681 10.7022139,5.15193167 13.225809,5.98442214 C9.23454428,8.16584109 6.10615936,11.8014817 4.64875078,16.2788627 C3.52960707,16.4899678 2.49829049,17.0292279 1.67654162,17.8452934 C0.595398364,18.9212203 0,20.3508908 0,21.8709856 C0,23.3724077 0.582615604,24.7889382 1.64062815,25.8597647 C2.46750752,26.696664 3.51178077,27.2488913 4.64875078,27.4631949 C7.06547508,34.8880071 14.0765147,40 22,40 C29.9234853,40 36.934438,34.8880071 39.3512492,27.4631949 C40.4882192,27.2488913 41.5324925,26.696664 42.3593719,25.8597647 C43.4173844,24.7889382 44,23.3724077 44,21.8709856 C44,20.3508908 43.4046016,18.9212203 42.3225888,17.8443424 Z M38.335585,24.9996974 L37.3681822,25.0179379 L37.1155705,25.9464716 C35.2752009,32.7118615 29.059475,37.4369149 21.999913,37.4369149 C14.9403511,37.4369149 8.72471215,32.7119479 6.88442946,25.9464716 L6.63181777,25.0179379 L5.66441499,24.9996974 C3.96256873,24.9677118 2.57803057,23.5642349 2.57803057,21.8709856 C2.57803057,21.0349508 2.90559967,20.2485369 3.49934584,19.657581 C4.07839619,19.0825315 4.84727487,18.7574021 5.66415412,18.7421873 L6.63173081,18.7241197 L6.8843425,17.7954131 C8.72471215,11.0301097 14.940438,6.30505632 22,6.30505632 C24.3300276,6.30505632 26.2256153,8.18952774 26.2256153,10.5058914 C26.2256153,12.8222551 24.3300276,14.7068129 22,14.7068129 C19.6699724,14.7068129 17.7743847,12.8223415 17.7743847,10.5059779 L15.1962671,10.5059779 C15.1962671,14.235587 18.2483903,17.2698116 22,17.2698116 C25.7516097,17.2698116 28.8037329,14.235587 28.8037329,10.5059779 C28.8037329,9.44457412 28.5559038,8.43996646 28.1157247,7.54506082 C32.439689,9.37351418 35.8357293,13.0908478 37.1155705,17.7954995 L37.3681822,18.7242062 L38.3357589,18.7422737 C39.1527251,18.7574885 39.9215169,19.082618 40.4996107,19.6566301 C41.0944003,20.2486233 41.4219694,21.0350372 41.4219694,21.871072 C41.4219694,23.5643213 40.0373443,24.9677983 38.335585,24.9996974 L38.335585,24.9996974 Z" id="Shape"></path>
                </g>
            </g>
        </g>
    </g>
</svg>