<?xml version="1.0" encoding="UTF-8"?>
<svg width="64px" height="53px" viewBox="0 0 64 53" version="1.1" xmlns="http://www.w3.org/2000/svg" xmlns:xlink="http://www.w3.org/1999/xlink">
    <title>children</title>
    <g id="Design-R0" stroke="none" stroke-width="1" fill="none" fill-rule="evenodd">
        <g id="Initial-Thoughts" transform="translate(-689.000000, -1610.000000)" fill="#000000" fill-rule="nonzero">
            <g id="Group-4" transform="translate(660.000000, 1610.000000)">
                <g id="children" transform="translate(29.000000, 0.000000)">
                    <path d="M57.7027073,2.76646038 C57.2374392,2.45744153 56.612064,2.58831567 56.3062808,3.05875851 C56.0004976,3.52920135 56.1300014,4.16094247 56.5955184,4.46996131 C59.3376149,6.29013006 61.1073756,8.89114341 61.7313823,11.9505305 C61.2748223,11.6015328 60.7495918,11.2410947 60.1635281,10.9051718 C57.1807113,9.1953849 54.0479886,8.92810498 51.1036124,10.131619 C46.9713095,11.8210393 44.9283593,10.8933542 43.7508825,10.0481411 C43.4229555,9.81317115 43.103488,9.53709085 42.7741925,9.20418528 C42.3804562,8.80603122 41.7420188,8.8059055 41.3481581,9.20393384 C40.9542974,9.60171074 40.954173,10.2470296 41.3479092,10.6449322 C41.5271743,10.8260942 41.7053198,10.992547 41.8840873,11.1499479 C40.8219323,12.6436228 38.3368529,13.3025194 36.8711338,13.5138541 C36.3135584,12.4105386 35.2412024,9.85189279 36.1074222,7.88199197 C38.004323,3.56867731 43.856252,2.03816658 48.2908548,2.03816658 C50.3956334,2.03816658 52.504393,2.46712195 54.3887291,3.27864213 C54.9016437,3.49928008 55.49343,3.25827555 55.7117577,2.74056213 C55.9300854,2.22272299 55.6918531,1.62429757 55.1794361,1.40353391 C53.04704,0.485277757 50.6650909,0 48.2908548,0 C40.236615,0 35.764318,3.64385765 34.2645124,7.05412823 C32.9183448,10.115024 34.6817609,13.7485726 35.2780257,14.8291328 L35.1964172,15.6826433 C33.3960533,15.916859 32,17.4746509 32,19.3569251 C32,20.9949261 33.0444897,22.386391 34.5104576,22.8753146 C34.2120142,26.2672301 35.7138103,29.6098635 38.4428445,31.6138344 L38.6563205,31.7706068 C35.6122973,33.1938786 33.5598924,36.3107196 33.5598924,39.8248346 L33.5598924,51.9809167 C33.5598924,52.5437635 34.0112274,53 34.5683052,53 L60.5501734,53 C61.1072512,53 61.5585862,52.5437635 61.5585862,51.9809167 L61.5585862,39.8249603 C61.5585862,38.0787147 61.0568678,36.3886658 60.1071734,34.9373584 C59.8001462,34.4679213 59.1745222,34.338933 58.7098761,34.6493348 C58.2453543,34.9597365 58.1177166,35.5919805 58.4249926,36.0614176 C59.1557373,37.1783108 59.541885,38.4796346 59.541885,39.825086 L59.541885,45.3192852 L56.5248573,45.3192852 L56.5248573,41.5015573 C56.5248573,40.9387105 56.0735223,40.482474 55.5164446,40.482474 C54.9593668,40.482474 54.5080318,40.9387105 54.5080318,41.5015573 L54.5080318,50.9620849 L40.6110688,50.9620849 L40.6110688,41.5015573 C40.6110688,40.9387105 40.1597338,40.482474 39.602656,40.482474 C39.0455782,40.482474 38.5942432,40.9387105 38.5942432,41.5015573 L38.5942432,45.3192852 L35.5770911,45.3192852 L35.5770911,39.825086 C35.5770911,37.1493952 37.1206867,34.77254 39.4195344,33.6592927 C39.569938,34.5728972 39.8687546,35.4584663 40.3065296,36.2712437 C40.4895268,36.6109381 40.8357411,36.8032891 41.193276,36.8032891 C41.3561199,36.8032891 41.5213274,36.7633103 41.6744678,36.6790781 C42.1636214,36.4100381 42.3441305,35.7911204 42.0780319,35.2969165 C41.8366896,34.8488518 41.651702,34.3709915 41.5249351,33.8761591 L43.12078,35.0477402 C44.4481627,36.0231988 46.0034522,36.5107395 47.5594881,36.5107395 C49.114902,36.5107395 50.6709378,36.0230731 51.9985694,35.0479917 L53.5970268,33.8746504 C52.8993733,36.5849141 50.4575863,38.5916508 47.5604833,38.5916508 C46.1318363,38.5916508 44.7880324,38.1169335 43.6742501,37.2187925 C43.2389631,36.8677833 42.6042577,36.9399463 42.2571726,37.3798393 C41.9097143,37.819858 41.9811218,38.4610281 42.4165332,38.8120373 C43.8703096,39.9842471 45.6971714,40.6296917 47.5606077,40.6296917 C51.6497426,40.6296917 55.0519228,37.6082719 55.7009346,33.659167 C55.9983828,33.8034931 56.2861275,33.9700716 56.5631735,34.1592797 C56.7363429,34.2775818 56.9327756,34.3344071 57.1272179,34.3344071 C57.4506663,34.3344071 57.7685166,34.1773833 57.9634565,33.8862166 C58.2753355,33.4200482 58.1544155,32.7864213 57.6931283,32.4712422 C57.2996408,32.2023279 56.8886124,31.9696209 56.4634021,31.7706068 L56.6766293,31.6140858 C59.4059123,29.6099893 60.9075839,26.2671044 60.6088917,22.8751889 C62.074362,22.3857624 63.1183541,20.9946747 63.1183541,19.3573023 C63.1183541,17.4757824 61.7229229,15.9183676 59.9229322,15.6833977 L59.809974,14.5013817 C59.756605,13.9410494 59.2637193,13.5314548 58.7093785,13.5848857 C58.1550376,13.6389451 57.7489853,14.1369205 57.8026031,14.6971272 L58.5956739,22.998017 C58.8540594,25.6997317 57.6643911,28.369388 55.4911907,29.9651472 L50.8131308,33.3991788 C48.8665931,34.8287367 46.2521343,34.8287367 44.3065918,33.3990531 L39.6287807,29.9650215 C37.4554559,28.3691365 36.2656631,25.6994803 36.5240487,22.9976398 L37.2389942,15.5153105 C38.7833362,15.2797119 41.996299,14.5336917 43.5508421,12.3016654 C45.8214502,13.4675892 48.5528481,13.3726709 51.8601085,12.0205563 C54.2288709,11.0520123 56.6700359,11.2627184 59.1151819,12.6470172 C61.016188,13.7229258 62.2082199,15.1347572 62.2186698,15.1473292 C62.4139829,15.3829277 62.6991152,15.5119161 62.9917116,15.5119161 C63.106909,15.5119161 63.2234749,15.4919267 63.3361842,15.4505649 C63.7346479,15.3041015 64,14.9212853 64,14.4929585 C64,9.62635178 61.7634783,5.46163772 57.7027073,2.76646038 Z M34.7154742,20.7213602 C34.2918811,20.4191303 34.0173232,19.9206519 34.0173232,19.3570509 C34.0173232,18.6811821 34.4179016,18.0993517 34.9911518,17.8376035 L34.7154742,20.7213602 Z M56.5251061,47.3572003 L59.5421338,47.3572003 L59.5421338,50.9619591 L56.5251061,50.9619591 L56.5251061,47.3572003 Z M38.5943676,47.3572003 L38.5943676,50.9619591 L35.5772155,50.9619591 L35.5772155,47.3572003 L38.5943676,47.3572003 Z M61.1011554,19.3570509 C61.1011554,19.9201491 60.8268462,20.4182502 60.4037508,20.7203545 L60.1284464,17.838232 C60.7010745,18.1003575 61.1011554,18.6818107 61.1011554,19.3570509 Z" id="Shape"></path>
                    <path d="M43,21 C42.4475697,21 42,21.4002574 42,21.8940441 L42,23.1059559 C42,23.5997426 42.4475697,24 43,24 C43.5524303,24 44,23.5997426 44,23.1059559 L44,21.8940441 C43.9998766,21.4002574 43.5523069,21 43,21 Z" id="Path"></path>
                    <path d="M55.7009921,17.172703 C54.9794803,16.4163888 54.0202362,16 53.0000157,16 C51.9797953,16 51.0205512,16.4165208 50.2990394,17.172703 C49.9002992,17.5906765 49.9002992,18.2685463 50.2991654,18.6865199 C50.6977795,19.1046254 51.3444567,19.1043613 51.7431968,18.6865199 C52.0788189,18.334709 52.5251811,18.1408432 52.9997638,18.1408432 C53.4743464,18.1408432 53.9208346,18.334709 54.2563307,18.6865199 C54.4558898,18.8954406 54.7171811,18.9999009 54.9785984,18.9999009 C55.2398897,18.9999009 55.5013071,18.8954406 55.7006142,18.6865199 C56.0997323,18.2685463 56.0997323,17.5908085 55.7009921,17.172703 Z" id="Path"></path>
                    <path d="M45.7009133,17.1727417 C44.9794394,16.4164025 44.0202456,16 43.0000787,16 C41.9799118,16 41.0207181,16.4165346 40.2992441,17.1727417 C39.900273,17.590729 39.900273,18.2684892 40.2991182,18.6864765 C40.6979634,19.1044638 41.3444806,19.1044638 41.7430739,18.6864765 C42.0788043,18.3345219 42.525143,18.1406498 42.9998268,18.1406498 C43.4745105,18.1406498 43.9208493,18.3345219 44.2563277,18.6863444 C44.4558763,18.8955362 44.7171539,19 44.9785575,19 C45.2398352,19 45.5012388,18.8955362 45.7005354,18.6866086 C46.0997585,18.2686212 46.0997585,17.5908611 45.7009133,17.1727417 Z" id="Path"></path>
                    <path d="M53,21 C52.4475697,21 52,21.4002574 52,21.8940441 L52,23.1059559 C52,23.5997426 52.4475697,24 53,24 C53.5524303,24 54,23.5997426 54,23.1059559 L54,21.8940441 C54,21.4002574 53.5523069,21 53,21 Z" id="Path"></path>
                    <path d="M49.7251675,28.3021095 C49.3585892,27.8992968 48.7646791,27.8992968 48.3982165,28.3021095 C47.6273255,29.1498616 46.3726021,29.1498616 45.6017112,28.3021095 C45.2351328,27.8992968 44.6412227,27.8992968 44.2747601,28.3021095 C43.9084133,28.7050495 43.9084133,29.3582042 44.2747601,29.7608896 C45.0260894,30.5870056 46.0129688,31 46.9998481,31 C47.9868432,31 48.9736067,30.5870056 49.7250518,29.7608896 C50.0916301,29.3580769 50.0916301,28.7047949 49.7251675,28.3021095 Z" id="Path"></path>
                    <path d="M48.9174679,20 C48.3194444,20 47.8349359,20.4983407 47.8349359,21.1131302 L47.8349359,23.7737395 L47.0825321,23.7737395 C46.4846421,23.7737395 46,24.2720802 46,24.8868698 C46,25.5016593 46.4845085,26 47.0825321,26 L48.9174679,26 C49.5154915,26 50,25.5016593 50,24.8868698 L50,21.1132676 C49.9998665,20.4983407 49.5153579,20 48.9174679,20 Z" id="Path"></path>
                    <path d="M23.6897569,24.1436494 C22.9714057,23.406127 22.0160875,23 21.0002532,23 C19.9841575,23 19.0288394,23.406127 18.3103575,24.1436494 C17.8965475,24.5682916 17.8965475,25.2569767 18.3103575,25.6814848 C18.7240368,26.106127 19.3949423,26.106127 19.8084909,25.6814848 C20.126756,25.3547853 20.5499767,25.1748658 21,25.1748658 C21.4500069,25.1748658 21.8732277,25.3547853 22.1914928,25.6814848 C22.3982671,25.8937388 22.6694786,26 22.9405595,26 C23.2116403,26 23.4828519,25.893873 23.6896262,25.6814848 C24.1034362,25.2568426 24.1034362,24.5681574 23.6897569,24.1436494 Z" id="Path"></path>
                    <path d="M13.6896707,24.1436494 C12.9712162,23.406127 12.0159344,23 11.0001389,23 C9.9840819,23 9.02880015,23.406127 8.31034567,24.1436494 C7.89655144,24.5682916 7.89655144,25.2569767 8.31034567,25.6814848 C8.7241399,26.106127 9.39488911,26.106127 9.80842194,25.6814848 C10.1266749,25.3547853 10.5498795,25.1748658 10.9998775,25.1748658 C11.4498754,25.1748658 11.87308,25.3547853 12.191333,25.6814848 C12.3980994,25.8937388 12.6693006,26 12.9403711,26 C13.2114416,26 13.4827735,25.893873 13.68954,25.6814848 C14.1034649,25.2568426 14.1034649,24.5681574 13.6896707,24.1436494 Z" id="Path"></path>
                    <path d="M18.714469,30.3071656 C18.333781,29.8976115 17.716381,29.8976115 17.335693,30.3071656 C16.5990949,31.0997466 15.4007397,31.0996172 14.6642619,30.3071656 C14.2834537,29.8976115 13.6661739,29.8976115 13.2856062,30.3071656 C12.9047979,30.7168491 12.9047979,31.3809349 13.2856062,31.7903596 C14.0106574,32.5703887 14.974706,33 16.0000977,33 C17.0254895,33 17.9895381,32.5703887 18.7145893,31.7903596 C19.095157,31.3808055 19.095157,30.7167197 18.714469,30.3071656 Z" id="Path"></path>
                    <path d="M16.1052651,26 L14.8947349,26 C14.400677,26 14,26.4476931 14,27 C14,27.5521836 14.4005666,28 14.8947349,28 L16.1052651,28 C16.599323,28 17,27.5523069 17,27 C16.9998896,26.4476931 16.599323,26 16.1052651,26 Z" id="Path"></path>
                    <path d="M32,21.6998598 C32,20.3447456 31.2281556,19.1658587 30.098664,18.5726059 L31.4202999,16.7707412 C32.0371973,15.929821 32.1520566,14.859718 31.7276804,13.9082654 C31.3033042,12.9568129 30.4281619,12.3229692 29.3868883,12.2126866 C28.8285515,12.1536111 28.3257593,12.5558989 28.2661933,13.1120578 C28.2066273,13.6680917 28.6115252,14.1666738 29.1711187,14.2258742 C29.6163555,14.2730847 29.8049811,14.5934411 29.8654268,14.7289526 C29.9258724,14.864464 30.0380927,15.2185422 29.7743185,15.5781158 L27.5678639,18.5862195 C27.3040897,18.9456682 26.9308598,18.9477915 26.7824475,18.9323044 C26.6341609,18.9166925 26.269602,18.8360102 26.0881394,18.429351 L24.5316326,14.9404003 C24.8794779,14.6310346 25.1609711,14.2501039 25.353618,13.8210885 L26.3918757,13.9311213 C26.428696,13.934993 26.4651393,13.9369914 26.5012056,13.9369914 C27.0153078,13.9369914 27.4570259,13.5513146 27.5126963,13.0319999 C27.5722622,12.4759659 27.1673644,11.9772589 26.6078966,11.9180586 L25.5710213,11.8081507 C25.2572317,10.3101563 23.9190079,9.18110259 22.3200258,9.18110259 C22.2020248,9.18110259 22.0856575,9.18747225 21.9706726,9.1994622 L20.4142914,5.71213517 C19.9897896,4.76093244 19.1146472,4.12708871 18.0734993,4.01693104 C17.0319743,3.90627379 16.042601,4.34290781 15.4258292,5.18395288 L13.219626,8.19255616 C12.6028542,9.03360122 12.4881206,10.1037043 12.9127481,11.0550319 C13.3371243,12.0063596 14.2123923,12.6402033 15.2536659,12.7504859 L19.0689046,13.1545222 C19.1238209,13.4166775 19.2100282,13.6675922 19.3235052,13.9030198 C16.7376631,16.4227828 12.353783,18.8905894 5.66580533,17.402087 C6.60817933,14.4203362 8.82682354,11.9484081 11.7848902,10.7050752 C12.3030136,10.4873827 12.5454246,9.89325569 12.326262,9.3783123 C12.1070994,8.86336891 11.5094289,8.62232095 10.9913054,8.84026327 C7.03230418,10.5042436 4.18871985,14.0211708 3.37176114,18.1694439 C1.4961868,18.2654884 0,19.8124417 0,21.6999847 C0,23.311384 1.07708862,24.6731177 2.56900276,25.0978867 C2.36152716,28.5506177 3.94241327,31.9063051 6.77556727,33.9518406 L7.58046198,34.5329785 C4.59701071,35.8557448 2.57779942,38.8334989 2.57779942,42.1946817 L2.57779942,44.3899667 C2.57779942,44.9489981 3.03384359,45.4023681 3.59645306,45.4023681 C4.15906253,45.4023681 4.6151067,44.949123 4.6151067,44.3899667 L4.6151067,42.1946817 C4.6151067,39.7288734 6.04657519,37.5348374 8.18642643,36.4855918 C8.84026987,40.1849911 12.094407,43.005627 16.001131,43.005627 C19.1975872,43.005627 22.0679385,41.1147119 23.3136717,38.1881648 C23.5328343,37.6733463 23.2905491,37.0793442 22.7724256,36.8614019 C22.2545535,36.6435844 21.6566317,36.8842577 21.4374691,37.399326 C20.5113061,39.5751273 18.3774868,40.9808241 16.001131,40.9808241 C13.217741,40.9808241 10.8800905,39.0548134 10.2626904,36.4693555 L11.4168126,37.3027819 C12.7877098,38.2927022 14.3942319,38.7876623 16.000754,38.7876623 C17.6072761,38.7876623 19.2137982,38.2927022 20.5846954,37.3027819 L22.4024631,35.990257 C25.301215,36.6400874 27.3864013,39.218801 27.3864013,42.1944319 L27.3864013,50.9751971 L24.6170859,50.9751971 L24.6170859,43.7687373 C24.6170859,43.2097059 24.1610418,42.7563359 23.5984323,42.7563359 C23.0358228,42.7563359 22.5797787,43.209581 22.5797787,43.7687373 L22.5797787,50.9751971 L9.42135233,50.9751971 L9.42135233,43.7687373 C9.42135233,43.2097059 8.96530816,42.7563359 8.40269869,42.7563359 C7.84008922,42.7563359 7.38404505,43.209581 7.38404505,43.7687373 L7.38404505,50.9751971 L4.61485537,50.9751971 L4.61485537,48.0926132 C4.61485537,47.5335818 4.15881119,47.0802118 3.59620173,47.0802118 C3.03359226,47.0802118 2.57754809,47.5334569 2.57754809,48.0926132 L2.57754809,51.9875986 C2.57754809,52.54663 3.03359226,53 3.59620173,53 L28.4046779,53 C28.9671617,53 29.4233316,52.5467549 29.4233316,51.9875986 L29.4233316,42.1945568 C29.4233316,38.8332491 27.4039946,35.8556199 24.420669,34.5328536 L25.2253124,33.9517157 C28.0587177,31.9058055 29.6396038,28.5501181 29.4318769,25.0971373 C30.923414,24.6716189 32,23.3105098 32,21.6998598 Z M2.78741135,23.0046411 C2.33689651,22.7422361 2.03718161,22.2558937 2.03718161,21.6999847 C2.03718161,21.0280479 2.48103612,20.4579007 3.09240424,20.2621898 L2.78741135,23.0046411 Z M22.3197744,11.2059055 C23.0274032,11.2059055 23.6032076,11.7780509 23.6032076,12.4814613 C23.6032076,13.1848718 23.0275288,13.7570172 22.3197744,13.7570172 C21.61202,13.7570172 21.0363412,13.1848718 21.0363412,12.4814613 C21.0363412,11.7780509 21.61202,11.2059055 22.3197744,11.2059055 Z M19.2863078,11.1413346 L15.4693099,10.7371733 C15.024073,10.6900878 14.8354474,10.3697313 14.7748761,10.2342199 C14.7143048,10.0987085 14.6022102,9.74475516 14.8658587,9.38505665 L17.072062,6.37632846 C17.3358362,6.01675485 17.7093174,6.01450673 17.8574783,6.03024354 C18.005765,6.04585546 18.3703238,6.12628804 18.5519121,6.53319698 L20.1089215,10.0218979 C19.760825,10.3311387 19.4790804,10.7121943 19.2863078,11.1413346 Z M24.0278352,32.3138385 L19.3870925,35.6650296 C17.3613465,37.1278036 14.6394075,37.1276787 12.6139129,35.6650296 L7.97304451,32.3138385 C5.59128502,30.59403 4.31275281,27.7189398 4.63621869,24.8108772 L5.23338648,19.4416276 C5.23552281,19.4218941 5.23866448,19.4025353 5.24105214,19.3829268 C6.80924592,19.7318843 8.2686124,19.8897519 9.62078526,19.8897519 C13.4602776,19.8897519 16.4463678,18.642922 18.68914,17.0641203 C19.2768828,17.7762734 20.2580878,18.7708148 21.6596477,19.5717685 C22.1893325,19.8745147 22.8659216,19.6580711 23.1094635,19.101038 C23.3173161,18.6259362 23.1279365,18.0751479 22.6764163,17.8166146 C21.5427777,17.1676585 20.7444177,16.3554643 20.2768122,15.792686 C20.4305024,15.6535526 20.5792917,15.5137947 20.7233057,15.3737871 C21.1974458,15.6333196 21.7415823,15.7815703 22.3201514,15.7815703 C22.4382781,15.7815703 22.555148,15.7750757 22.670133,15.7630858 L24.2258858,19.2500381 C24.6502619,20.2012409 25.5254043,20.8350846 26.5665523,20.9454921 C26.6731176,20.9567326 26.7789288,20.9623529 26.8842375,20.9623529 C26.9019565,20.9623529 26.9194241,20.961104 26.9370175,20.9608542 L27.3652893,24.8106274 C27.6883782,27.7189398 26.4097203,30.5939051 24.0278352,32.3138385 Z M29.2134683,23.0037669 L28.9086011,20.2628143 C29.5194665,20.4590248 29.9628184,21.0287972 29.9628184,21.6999847 C29.9628184,22.2552692 29.6634805,22.7412369 29.2134683,23.0037669 Z" id="Shape"></path>
                </g>
            </g>
        </g>
    </g>
</svg>