<?xml version="1.0" encoding="UTF-8"?>
<svg width="51px" height="43px" viewBox="0 0 51 43" version="1.1" xmlns="http://www.w3.org/2000/svg" xmlns:xlink="http://www.w3.org/1999/xlink">
    <title>translating</title>
    <g id="Design-R0" stroke="none" stroke-width="1" fill="none" fill-rule="evenodd">
        <g id="Initial-Thoughts" transform="translate(-917.000000, -1620.000000)" fill="#000000" fill-rule="nonzero">
            <g id="Group-3" transform="translate(855.500000, 1620.000000)">
                <g id="translating" transform="translate(61.500000, 0.000000)">
                    <path d="M37.9990256,4.90672088 C37.9876536,4.66688143 37.8756535,4.44296118 37.6905608,4.29001114 C34.8291345,1.91853554 31.3239771,0.456792114 27.6254458,0.0925917015 C27.0126717,0.0316452651 26.3894556,0.00117204685 25.7666658,0.000639298284 C25.7620841,0.000639298284 25.757609,0 25.7530273,0 C25.7484456,0 25.744077,0.000639298284 25.7394953,0.000639298284 C25.1163858,0.000639298284 24.4933829,0.0316452651 23.881035,0.0925917015 C18.2518674,0.645034893 13.1766191,3.7195464 10.0802463,8.45290846 L10.0737467,8.46239139 L10.0737467,8.46239139 C5.56355956,15.3374304 6.05671398,24.3483612 11.2902381,30.6901534 C11.4430667,30.8754164 11.6669591,30.9876128 11.906848,30.9991476 C11.9203799,31 11.9338053,31 11.9473373,31 C12.1733606,31 12.390134,30.9102491 12.549989,30.7504606 L37.7506555,5.54985495 C37.9203161,5.38001542 38.0104935,5.14650835 37.9990256,4.90672088 Z M22.9886714,17.900352 L17.755745,17.900352 C17.8280884,15.7245945 18.1834029,13.567515 18.8127297,11.483502 C20.8320891,11.7453653 22.8646172,11.8930649 24.9006203,11.9258964 L24.9006203,15.9884239 L22.9886714,17.900352 Z M8.72854198,17.900352 C8.86421056,15.0803768 9.70212844,12.3389523 11.1662128,9.92499931 C13.1203697,10.4737559 15.103998,10.9115573 17.107596,11.2363066 C16.4757094,13.4042177 16.1204576,15.6433213 16.0502917,17.900352 L8.72854198,17.900352 Z M24.3686118,1.76137332 C24.5453797,1.74709566 24.7226803,1.73462934 24.9006203,1.72589227 L24.9006203,10.221101 C23.0527974,10.1904423 21.2078873,10.0621195 19.3736134,9.8366696 C20.5040253,6.84884283 22.1999857,4.10702357 24.3686118,1.76137332 L24.3686118,1.76137332 Z M21.283964,19.6051474 L18.0715618,22.8174082 C17.8981587,21.7544646 17.7928849,20.6815231 17.7563843,19.6051474 L21.283964,19.6051474 Z M26.6054343,11.9260029 C27.4223243,11.9130039 28.2399602,11.8812876 29.0583419,11.830854 L26.6054343,14.2836285 L26.6054343,11.9260029 Z M30.9181874,9.97092224 C29.4915777,10.1132727 28.0458955,10.1972338 26.6054343,10.2208879 L26.6054343,1.72610537 C26.7835873,1.73484244 26.9611011,1.74741531 27.1381886,1.76158642 C29.115308,3.90305439 30.7018059,6.37446324 31.8256812,9.06365142 L30.9181874,9.97092224 Z M21.7786797,2.17041767 C20.0092968,4.40606058 18.61278,6.91291278 17.6431207,9.5940559 C15.8031374,9.30583493 13.9798959,8.9193593 12.1812165,8.43628671 C14.5558663,5.29674956 17.949072,3.08143683 21.7786797,2.17041767 L21.7786797,2.17041767 Z M12.0257587,28.863252 C10.0429881,26.1669994 8.89596849,22.9476877 8.72715682,19.6051474 L16.0502917,19.6051474 C16.1003744,21.17621 16.2879457,22.7398689 16.6108559,24.2782047 L12.0257587,28.863252 Z M33.1222987,7.76640866 C32.2254294,5.76797421 31.0848473,3.8881278 29.7265224,2.16967183 C31.9437584,2.69840969 34.0313028,3.66968715 35.8638527,5.02520416 L33.1222987,7.76640866 Z" id="Shape"></path>
                    <path d="M41.9253097,8.00516269 C41.5499572,7.42026717 41.143776,6.85676302 40.7085727,6.31715649 C40.5556672,6.12748681 40.3317768,6.01268987 40.0919471,6.00098958 C39.8521174,5.98928929 39.6185943,6.08177093 39.4487917,6.25569704 L14.249657,32.0741247 C14.0798796,32.2480729 13.9895801,32.4873201 14.000959,32.7330462 C14.0123379,32.9787724 14.1243397,33.2081852 14.3094284,33.3648824 C17.1706808,35.7945488 20.6756251,37.2921602 24.3739317,37.6652973 C25.5632522,37.785411 26.7609522,37.7908567 27.9512663,37.6815628 L27.9512663,42.1267295 C27.9512972,42.4862895 28.1664101,42.8090808 28.4932481,42.9400096 C28.8200862,43.0709384 29.1918397,42.9832412 29.4298894,42.7190545 L37.0741302,34.234157 C45.3215251,28.2564622 47.4663505,16.6599324 41.9253097,8.00505353 L41.9253097,8.00516269 Z M36.0197669,32.8586879 C35.969971,32.894527 35.9240402,32.9356956 35.8827508,32.9814977 L29.6559767,39.8931206 L29.6559767,36.7000674 C29.6559919,36.4468798 29.5487631,36.2061474 29.3620804,36.0402601 C29.1753977,35.8743728 28.9276383,35.7996608 28.6830132,35.8354868 C28.4249627,35.8733668 28.1852378,35.9032778 27.9498812,35.9271848 C26.8169492,36.0419163 25.6757365,36.0419163 24.5428045,35.9271848 C21.4998202,35.6203381 18.5948088,34.4745775 16.1364517,32.6116493 L39.9730967,8.18866773 C40.1566372,8.44338423 40.332542,8.70203063 40.5008111,8.96460695 C45.5552766,16.8611928 43.5706438,27.4437655 36.0197669,32.8586879 L36.0197669,32.8586879 Z" id="Shape"></path>
                    <circle id="Oval" cx="26.5" cy="27.5" r="1.5"></circle>
                    <circle id="Oval" cx="30.5" cy="27.5" r="1.5"></circle>
                    <circle id="Oval" cx="35.5" cy="27.5" r="1.5"></circle>
                    <path d="M7.19721025,29.7413823 C6.70416546,29.6829806 6.25453103,30.0145655 6.19290045,30.4820151 L6.11687431,31.0578021 C-0.511350223,22.2038001 0.594915988,10.1021426 8.73100389,2.46133889 C8.96080881,2.24715027 9.05223986,1.9327921 8.97070283,1.63720612 C8.88916581,1.34162014 8.64711383,1.10995111 8.33613062,1.02985421 C8.0251474,0.949757304 7.69272931,1.03346571 7.46465132,1.24930718 C-1.27611827,9.45744886 -2.48558333,22.4505246 4.60377418,31.9832198 L3.84351278,31.8765926 C3.35195413,31.8075752 2.89445438,32.129429 2.82165848,32.5954734 C2.74886258,33.0615177 3.08833686,33.4952709 3.57989551,33.5642884 L6.61644252,33.9907973 C6.85599266,34.0244242 7.09972647,33.9650784 7.29254268,33.8261763 C7.4853589,33.6872743 7.61097616,33.4805448 7.64099598,33.2527236 L7.97839009,30.6936701 C8.00800317,30.4691733 7.94233529,30.2427186 7.79583396,30.064128 C7.64933262,29.8855373 7.43399968,29.7694414 7.19721025,29.7413823 Z" id="Path"></path>
                    <path d="M46.4159667,3.69230608 C46.922294,3.69230608 47.3327534,3.31347046 47.3327534,2.84615304 C47.3327534,2.37883562 46.922294,2 46.4159667,2 L43.6656064,2 C43.1592791,2 42.7488197,2.37883562 42.7488197,2.84615304 L42.7488197,5.38461216 C42.7488197,5.85192957 43.1592791,6.23076519 43.6656064,6.23076519 C44.1719338,6.23076519 44.5823932,5.85192957 44.5823932,5.38461216 L44.5823932,5.10559319 C51.4818922,13.8289924 50.5001736,25.8847538 42.2654439,33.5583353 C41.909116,33.8903643 41.9118866,34.4261326 42.2716322,34.7550072 C42.6313778,35.0838818 43.21187,35.0813247 43.5681979,34.7492957 C52.5863161,26.345612 53.5076339,13.0906434 45.7268869,3.69230608 L46.4159667,3.69230608 Z" id="Path"></path>
                </g>
            </g>
        </g>
    </g>
</svg>